# xmcd CD database file
#
# Track frame offsets:
#	225
#	14347
#	28590
#	44830
#	62585
#	81993
#	103516
#	116877
#	132146
#	148351
#
# Disc length: 2180 seconds
#
# Revision: 0
# Processed by: cddbd v1.4PL0 Copyright (c) Steve Scherf et al.
# Submitted via: CDex 1.50Beta7
#
DISCID=9208810a
DTITLE=Eddie Rabbitt - Greatest Hits Volume II
DYEAR=1983
DGENRE=Country
TTITLE0=I Love A Rainy Night
TTITLE1=Drivin' My Life Away
TTITLE2=Step By Step
TTITLE3=You And I
TTITLE4=Suspicions
TTITLE5=You Put The Beat In My Heart
TTITLE6=Nothing Like Falling In Love
TTITLE7=Someone Could Lose A Heart Tonight
TTITLE8=You Can't Run From Love
TTITLE9=Gone Too Far
EXTD=YEAR: 1983
EXTT0=
EXTT1=
EXTT2=
EXTT3=
EXTT4=
EXTT5=
EXTT6=
EXTT7=
EXTT8=
EXTT9=
PLAYORDER=
